<?xml version="1.0" encoding="UTF-8"?>
<svg xmlns="http://www.w3.org/2000/svg" xmlns:xlink="http://www.w3.org/1999/xlink" xmlns:svg="http://www.w3.org/2000/svg" version="1.1" viewBox="0 0 106 26">
  <defs>
    <style>
      .cls-1 {
        fill: none;
      }

      .cls-2 {
        fill: #0077ae;
        fill-rule: evenodd;
      }

      .cls-3 {
        clip-path: url(#clippath);
      }
    </style>
    <clipPath id="clippath">
      <rect class="cls-1" x=".1" width="105.7" height="26"/>
    </clipPath>
  </defs>
  <!-- Generator: Adobe Illustrator 28.7.0, SVG Export Plug-In . SVG Version: 1.2.0 Build 136)  -->
  <g>
    <g id="_레이어_1" data-name="레이어_1">
      <g class="cls-3">
        <g id="svg_2">
          <path id="svg_3" class="cls-2" d="M68.9,0c7.4,0,13.4,5.7,13.4,12.8s-6,12.8-13.4,12.8v-3.9c5.2,0,9.3-4,9.3-9s-4.2-8.9-9.3-8.9c0,0,0-3.9,0-3.9ZM41.5,0c3,0,5.8.9,8,2.5.6.4.9.9.9,1.6,0,1.1-.9,1.9-2,1.9s-.9-.2-1.3-.4c-1.6-1.1-3.5-1.8-5.6-1.8-5.2,0-9.4,4-9.4,8.9s4.2,9,9.4,9c9.7,0,11.3-11.6,17.8-17.9.7-.7,1.4-1.2,2.2-1.7h0c.1,0,.2-.2.3-.2.8-.5,1.7-.9,2.6-1.2.1,0,.2,0,.4-.1h0C66.2.2,67.5,0,68.9,0v3.9h-.4c-1.7,0-3.2.6-4.5,1.3-2.7,1.6-4.5,4.4-4.5,7.6,0,4.9,4.2,8.9,9.4,8.9v3.9c-6.5,0-11.8-4.4-13.1-10.2-3.2,5.3-6.8,10.4-14.3,10.2-7.4-.2-13.4-5.8-13.4-12.8S34.1,0,41.5,0Z"/>
          <path id="svg_4" class="cls-2" d="M25.4,23.6h0c0,1.1-.9,2.1-2.1,2.1s-2-.9-2-2h0v-1.6h0V3h0v-1h0C21.3.9,22.2,0,23.3,0s2.1.9,2.1,1.9h0v21.6s0,0,0,0Z"/>
          <path id="svg_5" class="cls-2" d="M16.1,21.7c-4.9-.3-8.8-4.2-8.8-8.9s3.7-8.6,8.8-8.9h0c1.1,0,1.9-.9,1.9-2S17.2,0,16.1,0,15.9,0,15.9,0C11,.3,6.9,3.1,4.8,7V2.1h0C4.8,1,3.8,0,2.7,0S.7.9.7,2h0v1h0v19h0v1.5h0v.2c0,1.1.9,2,2,2s2.1-.9,2.1-2h0v-5.1c2.1,3.9,6.3,6.7,11.1,7h.2c1.1,0,2-.9,2-1.9s-.9-1.9-2-1.9Z"/>
          <path id="svg_6" class="cls-2" d="M83.8,3.9s0,0,.2,0c0,0,.1,0,.2,0,4.4.8,7.7,4.4,7.7,8.8s-3.5,8.2-7.9,8.8c-1,.1-1.8.9-1.8,1.9s.9,1.9,2,1.9.2,0,.2,0h.2c3.9-.6,7.3-2.8,9.3-5.9,2,3.1,5.4,5.3,9.3,5.9h.2c0,0,.2,0,.2,0,1.1,0,2.1-.9,2.1-1.9s-.8-1.8-1.8-1.9c-4.5-.7-7.9-4.4-7.9-8.8s3.3-8,7.7-8.8c0,0,.2,0,.2,0,0,0,0,0,.2,0,.9-.2,1.7-.9,1.7-1.9s-.9-1.9-2.1-1.9h-.3s0,0,0,0h0c-.1,0-.2,0-.4,0-3.8.7-7,2.8-9,5.8-2-3-5.2-5.2-9.1-5.8-.2,0-.2,0-.4,0h0c0,0-.2,0-.2,0-1.1,0-2,.9-2,1.9s.7,1.7,1.7,1.9Z"/>
        </g>
      </g>
    </g>
  </g>
</svg>