<svg width="219" height="42" viewBox="0 0 219 42" fill="none" xmlns="http://www.w3.org/2000/svg">
<g clip-path="url(#clip0_704_2935)">
<path fill-rule="evenodd" clip-rule="evenodd" d="M68.7937 8C76.1854 8 82.173 13.7121 82.173 20.803C82.173 27.8939 76.1854 33.6061 68.7937 33.6061V29.7455C73.9555 29.7455 78.1262 25.7273 78.1262 20.803C78.1262 15.8788 73.9555 11.8606 68.7937 11.8606V8ZM41.3744 8C44.3889 8 47.1556 8.94545 49.3855 10.5212C49.9636 10.8758 50.2939 11.4667 50.2939 12.1364C50.2939 13.2 49.3855 14.0667 48.2705 14.0667C47.775 14.0667 47.3621 13.9091 46.9904 13.6333C45.4212 12.4909 43.4804 11.8606 41.3744 11.8606C36.2126 11.8606 32.0006 15.8788 32.0006 20.803C32.0006 25.7273 36.2126 29.7455 41.3744 29.7455C51.0785 29.7455 52.6477 18.1242 59.2135 11.8606C59.8742 11.1909 60.5762 10.6394 61.4021 10.1273L61.4434 10.0879C61.5672 10.0485 61.6498 9.9697 61.7324 9.9303C62.517 9.45758 63.3842 9.06364 64.2926 8.74848C64.4165 8.70909 64.5404 8.6697 64.6643 8.6303L64.7469 8.59091C66.027 8.19697 67.3897 8 68.7937 8V11.8606C68.6698 11.8606 68.5459 11.8606 68.4221 11.8606C66.6877 11.9394 65.2011 12.4121 63.8797 13.2C61.1956 14.7758 59.4199 17.6121 59.4199 20.803C59.4199 25.7273 63.6319 29.7455 68.7937 29.7455V33.6061C62.3105 33.6061 56.9423 29.1939 55.6622 23.403C52.4412 28.7212 48.8074 33.803 41.3744 33.6061C33.9828 33.4091 27.9951 27.8545 27.9951 20.803C27.9951 13.7515 33.9828 8 41.3744 8Z" fill="#0077AE"/>
<path fill-rule="evenodd" clip-rule="evenodd" d="M25.2283 31.5576C25.2283 31.597 25.2283 31.597 25.2283 31.6364C25.2283 32.7 24.3198 33.6061 23.1635 33.6061C22.0486 33.6061 21.1401 32.7394 21.1401 31.6364V31.597V31.5576V31.5182V30.0212V29.9818V10.9939V10.9152V9.9697V9.9303C21.1814 8.86667 22.0899 8 23.2048 8C24.3198 8 25.2695 8.86667 25.2695 9.9303V9.9697C25.2695 17.2182 25.2695 22.7727 25.2695 30.0212V31.5576H25.2283Z" fill="#0077AE"/>
<path fill-rule="evenodd" clip-rule="evenodd" d="M15.9784 29.7061C11.1057 29.4303 7.22407 25.5303 7.22407 20.803C7.22407 16.0364 10.8992 12.2152 16.061 11.9V11.8606C17.176 11.8212 18.0018 10.9939 18.0018 9.9303C18.0018 8.86667 17.0521 8 15.9371 8C15.8958 8 15.772 8 15.7307 8.03939C10.8992 8.31515 6.72854 11.0727 4.62254 15.0121V10.0485V10.0091C4.62254 8.94545 3.71407 8.03939 2.55784 8.03939C1.44289 8.03939 0.534424 8.94545 0.534424 10.0091V10.0485V10.9939V11.0333V30.0212C0.534424 30.0606 0.534424 30.0606 0.534424 30.1V31.5576V31.6364C0.534424 31.6758 0.534424 31.6758 0.534424 31.7151C0.534424 32.7788 1.44289 33.6848 2.55784 33.6848C3.67278 33.6848 4.62254 32.8182 4.62254 31.7151C4.62254 31.6758 4.62254 31.6758 4.62254 31.6364V30.1V26.5939C6.72854 30.5333 10.8992 33.2909 15.772 33.5667C15.8132 33.5667 15.8958 33.5667 15.9371 33.5667C17.0521 33.5667 17.9605 32.7 17.9605 31.6364C17.9605 30.5727 17.0521 29.7455 15.9784 29.7061Z" fill="#0077AE"/>
<path fill-rule="evenodd" clip-rule="evenodd" d="M83.6183 11.9404C83.6596 11.9404 83.7009 11.9404 83.7835 11.9797C83.8248 11.9797 83.9074 11.9797 83.99 12.0191C88.3672 12.7676 91.6707 16.4313 91.6707 20.804C91.6707 25.2555 88.202 28.9585 83.7422 29.6282C82.7512 29.7464 81.9666 30.5737 81.9666 31.5585C81.9666 32.6222 82.8751 33.4888 83.99 33.4888C84.0726 33.4888 84.1552 33.4888 84.1965 33.4494H84.2378C84.2791 33.4494 84.3204 33.4494 84.4029 33.4494C88.3259 32.8585 91.712 30.6525 93.7354 27.5404C95.7588 30.6131 99.1449 32.8585 103.068 33.4494C103.109 33.4494 103.15 33.4494 103.192 33.4494H103.233C103.316 33.4888 103.398 33.4888 103.44 33.4888C104.554 33.4888 105.504 32.6222 105.504 31.5585C105.504 30.5737 104.72 29.7464 103.729 29.6282C99.2275 28.9585 95.8001 25.2555 95.8001 20.804C95.8001 16.3919 99.1449 12.7676 103.481 12.0191C103.522 11.9797 103.646 11.9797 103.687 11.9797C103.729 11.9404 103.77 11.9404 103.852 11.9404C104.761 11.7828 105.504 10.9949 105.504 10.0494C105.504 8.98581 104.596 8.11914 103.44 8.11914C103.398 8.11914 103.274 8.11914 103.192 8.11914H103.15V8.15853H103.109H103.068C102.944 8.15853 102.82 8.19793 102.696 8.19793C98.9385 8.86763 95.6762 11.0343 93.7354 14.0282C91.712 11.0343 88.4911 8.86763 84.692 8.19793C84.5268 8.15853 84.4442 8.15853 84.2791 8.15853H84.2378L84.1965 8.11914C84.1139 8.11914 84.0313 8.11914 83.9487 8.11914C82.8338 8.11914 81.9253 8.98581 81.9253 10.0494C81.9253 10.9949 82.6686 11.7828 83.6183 11.9404Z" fill="#0077AE"/>
</g>
<path d="M124.181 33V8.96094H140.019V13.0781H129.161V18.9219H138.989V23.0391H129.161V33H124.181ZM165.319 20.9805C165.319 28.8164 160.438 33.332 154.097 33.332C147.688 33.332 142.841 28.7832 142.841 20.9805C142.841 13.1445 147.688 8.62891 154.097 8.62891C160.438 8.62891 165.319 13.1445 165.319 20.9805ZM160.239 20.9805C160.239 15.834 157.815 13.0449 154.097 13.0449C150.378 13.0449 147.921 15.834 147.921 20.9805C147.921 26.127 150.378 28.916 154.097 28.916C157.815 28.916 160.239 26.127 160.239 20.9805ZM168.905 8.96094H175.081L181.755 25.2637H182.021L188.694 8.96094H194.87V33H190.022V17.2617H189.823L183.548 32.9004H180.228L173.952 17.1953H173.753V33H168.905V8.96094ZM211.97 15.834C211.771 13.9414 210.243 12.8125 207.819 12.8125C205.296 12.8125 203.901 13.9746 203.868 15.5684C203.835 17.2949 205.661 18.0918 207.72 18.5566L209.878 19.0879C213.995 20.0176 217.083 22.1094 217.083 26.127C217.083 30.543 213.63 33.332 207.786 33.332C201.976 33.332 198.257 30.6426 198.124 25.4961H202.972C203.138 27.9199 205.063 29.1484 207.72 29.1484C210.343 29.1484 212.036 27.9199 212.036 26.127C212.036 24.5 210.542 23.7363 207.919 23.0723L205.296 22.4414C201.245 21.4453 198.755 19.4199 198.755 15.9004C198.755 11.5176 202.606 8.62891 207.853 8.62891C213.165 8.62891 216.685 11.584 216.751 15.834H211.97Z" fill="black"/>
<defs>
<clipPath id="clip0_704_2935">
<rect width="105.733" height="26" fill="white" transform="translate(0 8)"/>
</clipPath>
</defs>
</svg>
