<svg width="120" height="31" viewBox="0 0 120 31" fill="none" xmlns="http://www.w3.org/2000/svg">
<path fill-rule="evenodd" clip-rule="evenodd" d="M78.0945 0.00390625C86.5313 0.00390625 93.3998 6.87239 93.3998 15.3422C93.3998 23.8121 86.5313 30.6806 78.0945 30.6806V26.0559C84.0135 26.0559 88.7751 21.2612 88.7751 15.3422C88.7751 9.42327 84.0135 4.62856 78.0945 4.62856V0.00390625ZM46.7376 0.00390625C50.1718 0.00390625 53.3368 1.12818 55.8877 3.03189C56.5349 3.43815 56.9411 4.15617 56.9411 4.96867C56.9411 6.26301 55.8877 7.28336 54.6264 7.28336C54.0832 7.28336 53.573 7.08023 53.162 6.77318C51.3575 5.41272 49.1468 4.62856 46.7329 4.62856C40.8139 4.62856 36.0192 9.42327 36.0192 15.3422C36.0192 21.2612 40.8139 26.0559 46.7329 26.0559C57.8528 26.0559 59.6243 12.1111 67.1399 4.62856C67.8863 3.8444 68.7035 3.16416 69.6247 2.55479L69.6908 2.48865C69.8278 2.42252 69.927 2.35166 70.0309 2.28553C70.9143 1.74228 71.9016 1.26517 72.955 0.89199C73.092 0.825856 73.229 0.788065 73.3612 0.754999L73.4651 0.721932C74.9295 0.244823 76.4931 0.0086301 78.0898 0.0086301V4.63328H77.6835C75.6759 4.73721 73.9753 5.31351 72.4779 6.22994C69.4168 8.10059 67.3761 11.5018 67.3761 15.347C67.3761 21.266 72.1708 26.0607 78.0898 26.0607V30.6853C70.6733 30.6853 64.5182 25.4135 63.0585 18.4411C59.3833 24.7994 55.2358 30.8884 46.7329 30.6853C38.263 30.4822 31.3945 23.8168 31.3945 15.347C31.3945 6.87711 38.2677 0.00390625 46.7376 0.00390625Z" fill="white"/>
<path fill-rule="evenodd" clip-rule="evenodd" d="M28.2674 28.2336V28.3376C28.2674 29.6319 27.214 30.6853 25.9197 30.6853C24.6253 30.6853 23.605 29.6319 23.605 28.3376V28.2336V2.35166V2.31859C23.605 1.02426 24.6584 0.00390625 25.9197 0.00390625C27.1809 0.00390625 28.2674 1.02426 28.2674 2.31859V2.38473V28.2336Z" fill="white"/>
<path fill-rule="evenodd" clip-rule="evenodd" d="M17.6578 26.0237C12.0789 25.6836 7.6243 21.0259 7.6243 15.3431C7.6243 9.62721 11.8096 5.03562 17.7239 4.66244V4.62937C18.9804 4.59631 19.9347 3.57596 19.9347 2.31469C19.9347 1.05342 18.9143 0 17.62 0C17.5538 0 17.4499 0 17.3838 0.033067C11.838 0.373184 7.07633 3.67043 4.66244 8.39901V2.45168V2.41861C4.66244 1.12428 3.60902 0.0708578 2.31469 0.0708578C1.02035 0.0708578 0 1.12428 0 2.41861V2.45168V28.3337V28.4376C0 29.7319 1.05342 30.7853 2.31469 30.7853C3.57596 30.7853 4.66244 29.7319 4.66244 28.4376V28.3337V22.2777C7.07633 27.0063 11.838 30.3035 17.4168 30.6436H17.62C18.9143 30.6436 19.9347 29.6233 19.9347 28.3289C19.9347 27.0346 18.9143 26.052 17.6578 26.0142V26.0237Z" fill="white"/>
<path fill-rule="evenodd" clip-rule="evenodd" d="M95.0346 4.73416C95.0676 4.73416 95.1385 4.73416 95.2046 4.76723C95.2708 4.76723 95.3416 4.76723 95.4408 4.80029C100.439 5.68365 104.251 10.0721 104.251 15.3439C104.251 20.6157 100.306 25.1412 95.1716 25.9206C94.0142 26.0576 93.1309 27.0449 93.1309 28.2353C93.1309 29.4919 94.1843 30.55 95.4455 30.55C95.5495 30.55 95.6156 30.55 95.6817 30.5169H95.8849C100.373 29.8036 104.251 27.1488 106.565 23.4406C108.88 27.1488 112.754 29.7989 117.246 30.5169H117.416C117.52 30.55 117.586 30.55 117.652 30.55C118.947 30.55 120 29.4966 120 28.2353C120 27.0449 119.084 26.0576 117.959 25.9206C112.825 25.1365 108.88 20.6819 108.88 15.3439C108.88 10.006 112.688 5.68365 117.69 4.80029C117.756 4.76723 117.86 4.76723 117.926 4.76723C117.992 4.73416 118.03 4.73416 118.096 4.73416C119.15 4.53104 120 3.57682 120 2.45727C120 1.16293 118.947 0.142578 117.652 0.142578H117.345V0.175645H117.279C117.142 0.175645 116.972 0.208712 116.835 0.241779C112.518 1.02594 108.809 3.64295 106.565 7.21418C104.322 3.64295 100.613 1.02594 96.2958 0.241779C96.1258 0.208712 95.9888 0.175645 95.8187 0.175645H95.7857L95.7526 0.142578H95.4455C94.189 0.142578 93.1309 1.16293 93.1309 2.45727C93.1309 3.58154 93.9481 4.53104 95.0346 4.73416Z" fill="white"/>
</svg>
