<svg xmlns="http://www.w3.org/2000/svg" xml:space="preserve" width="274.133" height="157.305" overflow="visible"><switch><g><path d="M101.729 53.645v-7.711c0-13.099-7.273-24.527-17.992-30.47l-3.543-1.711c-.287-.117-6.785-2.422-13.242-2.453-6.563-.03-12.799 2-13.211 2.259l-3.561 1.646C39.2 21.066 31.707 32.642 31.707 45.934v7.711c-3.93.551-6.967 3.926-6.967 8.004 0 4.276 3.338 7.781 7.543 8.065C35.25 85.93 48.93 98.257 66.469 98.257c17.471 0 31.713-12.327 34.678-28.543 4.207-.284 7.543-3.789 7.543-8.065-.002-4.081-3.032-7.456-6.961-8.004zm-73.598 8.001c0-2.207 1.527-4.047 3.576-4.556v6.345c0 .94.049 1.875.123 2.806a4.711 4.711 0 0 1-3.699-4.595zm38.303 33.318c-15.713-.069-31.34-13.082-31.34-31.526V45.934c0-3.134.469-6.16 1.326-9.021l1.143-3.19c4.777-11.285 14.096-19.224 29.129-19.224 15.033 0 24.468 7.983 29.218 19.328l1.133 3.194a31.3 31.3 0 0 1 1.293 8.91v17.504h.002c0 18.447-15.998 31.599-31.904 31.529zm35.17-28.723c.074-.931.125-1.863.125-2.806v-6.344c2.047.509 3.574 2.349 3.574 4.556a4.71 4.71 0 0 1-3.699 4.594z"/><path d="M58.408 54.331a2.896 2.896 0 0 1-5.79 0 2.899 2.899 0 0 1 2.895-2.896 2.9 2.9 0 0 1 2.895 2.896zm22.852 0a2.898 2.898 0 0 1-5.791 0 2.9 2.9 0 0 1 2.896-2.896 2.9 2.9 0 0 1 2.895 2.896z"/><path d="M47.949 13.749S59.828-2.368 79.345 3.253c19.516 5.617 23.66 23.108 24.582 32.224.918 9.116-2.117 18.229-2.117 18.229l-3.315 1.104s1.194-16.113-3.772-18.509c-4.972-2.396-11.785 4.06-25.688 2.767-13.903-1.293-20.346-.832-29.461-3.228 0 0-4.883 2.488-4.514 15.563l-3.313 1.841-2.117-12.888c-.001.001-8.105-31.947 18.319-26.607zM83 70.439a1.697 1.697 0 0 0-2.394 0c-7.414 7.41-19.475 7.41-26.889 0a1.695 1.695 0 0 0-2.395 2.397c4.365 4.367 10.102 6.552 15.838 6.552 5.736 0 11.473-2.183 15.84-6.55 1.03-.9 0-2.399 0-2.399zm5.949 18.254c.252 1.129.399 2.289.399 3.479 0 10.438-10.137 18.897-22.646 18.897-12.506 0-22.646-8.461-22.646-18.897 0-1.438.209-2.836.576-4.188C10.107 95.848 0 123.87 0 157.241h132.135c0-32.488-11.875-59.867-43.186-68.548z"/><path d="M187.545 88.703c2.818.952-4.211 3.875-6.905 3.875-5.396 0-9.771-5.928-9.771-13.221 0-4.564 1.709-8.594 4.31-10.973 0 .003 3.534 17.327 12.366 20.319zm43.922-1.152c-2.961 1.949 4.56 5.027 7.669 5.027 5.393 0 9.768-5.928 9.768-13.221 0-5.801-2.756-10.729-6.592-12.516 0 .003-.59 13.956-10.845 20.71z"/><path d="M170.313 61.711c0-2.207 1.527-4.047 3.576-4.556V63.5c0 .939.051 1.875.125 2.805a4.712 4.712 0 0 1-3.701-4.594zm52.062-47.897c-.287-.116-6.785-2.422-13.242-2.452-6.563-.03-12.799 2-13.211 2.259l-3.561 1.645c-10.98 5.863-18.473 17.438-18.473 30.73v7.711c-3.93.551-6.965 3.926-6.965 8.004 0 4.276 3.338 7.781 7.541 8.064 2.967 16.217 16.646 28.543 34.186 28.543 17.473 0 31.717-12.326 34.682-28.543 4.207-.283 7.543-3.788 7.543-8.064 0-4.078-3.035-7.453-6.965-8.004v-7.711c0-13.1-7.271-24.527-17.99-30.471m13.306 21.561a31.22 31.22 0 0 1 1.293 8.91V63.5h.002c0 18.443-15.998 31.598-31.903 31.525-15.712-.068-31.339-13.082-31.339-31.525V45.996c0-3.134.468-6.16 1.324-9.021l1.144-3.189c4.776-11.285 14.096-19.225 29.129-19.225s24.47 7.984 29.22 19.328m5.69 32.416c.074-.93.123-1.863.123-2.805v-6.345c2.049.509 3.578 2.349 3.578 4.556 0 2.25-1.588 4.129-3.701 4.594z"/><path d="M200.59 54.394a2.894 2.894 0 0 1-5.789 0 2.9 2.9 0 0 1 2.896-2.895 2.898 2.898 0 0 1 2.893 2.895zm22.854 0a2.898 2.898 0 0 1-5.791 0 2.899 2.899 0 0 1 2.895-2.895 2.9 2.9 0 0 1 2.896 2.895zm-14.683-35.859c17.7 0 28.803 11.094 34.396 26.857-12.4 4.84-26.131-1.539-32.293-15.215-.365-.801-1.049-1.246-1.768-1.246h-.092c-.029.004-.06 0-.09 0-.72 0-1.408.445-1.767 1.246-6.226 13.817-20.185 20.196-32.678 15.071 5.628-15.686 16.6-26.713 34.292-26.713z"/><ellipse cx="209.208" cy="11.93" rx="15.097" ry="11.93"/><path d="M175.819 39.854s6.936-27.318 31.949-26.689c0 0 26.482-.211 33.842 26.063l-1.686 2.734-14.502-3.156-12.189-11.141-13.453 1.473-8.619 9.039-15.342 1.677zm49.317 30.65a1.697 1.697 0 0 0-2.396 0c-7.414 7.41-19.475 7.41-26.889 0a1.694 1.694 0 1 0-2.422 2.37l.029.028c4.365 4.367 10.101 6.553 15.838 6.553 5.732 0 11.472-2.186 15.838-6.553 1.031-.902.002-2.398.002-2.398zm5.814 18.254c.252 1.129.4 2.289.4 3.479 0 10.438-10.139 18.897-22.646 18.897-12.506 0-22.646-8.461-22.646-18.897 0-1.438.209-2.837.575-4.188C152.109 95.91 142 123.934 142 157.305h132.133c0-32.491-11.875-59.868-43.183-68.547z"/></g></switch></svg>