<svg xmlns="http://www.w3.org/2000/svg" xml:space="preserve" width="35.937" height="79.856" overflow="visible"><switch><g><path d="M8.704 8.308c-.132 2.653-.952 8.276-5.107 14.475C-.047 28.219-.02 34.581.004 40.736v34.396c-.064 3.393 2.558 4.574 3.955 4.726H31.98c1.396-.151 4.019-1.333 3.956-4.726l-.004-14.66V40.744c.022-6.154.051-12.516-3.595-17.952-4.155-6.197-4.974-11.821-5.105-14.476"/><path d="M26.385 0H9.456a4.233 4.233 0 0 0 0 8.464h16.929a4.233 4.233 0 0 0 0-8.464zm-1.073 6.407H10.319a2.176 2.176 0 1 1 0-4.352h14.992a2.177 2.177 0 0 1 .001 4.352z"/></g></switch></svg>