<?xml version="1.0" encoding="utf-8"?>
<!-- Generator: Adobe Illustrator 23.0.1, SVG Export Plug-In . SVG Version: 6.00 Build 0)  -->
<svg version="1.1" xmlns="http://www.w3.org/2000/svg" xmlns:xlink="http://www.w3.org/1999/xlink" width="316.7px" height="316.7px" viewBox="0 0 316.7 316.7">
<circle cx="158.3" cy="158.3" r="158.3"/>
<g>
	<path fill="#212121" d="M199.4,225.8h-82.1c-6.5,0-11.7-5.3-11.7-11.7v0c0-6.5,5.3-11.7,11.7-11.7h82.1c6.5,0,11.7,5.3,11.7,11.7v0
		C211.1,220.5,205.9,225.8,199.4,225.8z"/>
	<path fill="#212121" d="M244.3,105.2l-49,0.7c-6.5,0.1-11.7,5.4-11.6,11.9c0.1,6.4,5.3,11.6,11.7,11.6c0.1,0,0.1,0,0.2,0l2.5,0
		c-1,2.6-1.6,5.5-1.6,8.5c0,13,10.5,23.5,23.5,23.5s23.5-10.5,23.5-23.5c0-3.2-0.7-6.3-1.8-9.1l3,0c6.5-0.1,11.7-5.4,11.6-11.9
		C256.1,110.3,250.7,105,244.3,105.2z"/>
	<path fill="#212121" d="M121.1,105.2l-49,0.7c-6.5,0.1-11.7,5.4-11.6,11.9c0.1,6.4,5.3,11.6,11.7,11.6c0.1,0,0.1,0,0.2,0l2.5,0
		c-1,2.6-1.6,5.5-1.6,8.5c0,13,10.5,23.5,23.5,23.5s23.5-10.5,23.5-23.5c0-3.2-0.7-6.3-1.8-9.1l3,0c6.5-0.1,11.7-5.4,11.6-11.9
		C132.9,110.3,127.4,105,121.1,105.2z"/>
</g>
</svg>
