<?xml version="1.0" encoding="utf-8"?>
<!-- Generator: Adobe Illustrator 21.1.0, SVG Export Plug-In . SVG Version: 6.00 Build 0)  -->
<svg width="228px" height="334.5px">
	<path d="M220.5,20.1c0-3.6-3-6.6-6.6-6.6h-12.2V7c0-3.8-3.1-7-7-7H33.2c-3.8,0-7,3.1-7,7v6.5H14.1 c-3.6,0-6.6,3-6.6,6.6L0,47.4C0,51,3,54,6.6,54h7.7l1.3,12.6l0,0.4l8.6,86.6l0,0.4l6.6,66.6h0.1l9.4,95.2c0,0,0.2,18.7,12.2,18.7 H114h61.5c12,0,12.2-18.7,12.2-18.7l9.4-95.2h0.1l6.6-66.6l0-0.4l8.6-86.6l0-0.4l1.3-12.6h7.7c3.6,0,6.6-3,6.6-6.6L220.5,20.1z"/>
</svg>