<svg xmlns="http://www.w3.org/2000/svg" xml:space="preserve" width="175.424" height="392.514" overflow="visible"><switch><g><path d="M88.167 74.984c19.881 0 35.991-17.123 35.991-38.241C124.158 15.621 108.047 0 88.167 0h-.535c-19.885 0-36 15.621-36 36.743 0 21.119 16.116 38.241 36 38.241h.535zM175.131 212.918l-19.005-93.332-1.903-9.609c-3.003-15.163-15.923-26.073-36.505-26.073H57.721c-18.471 0-33.501 10.907-36.508 26.073l-1.901 9.609L.294 212.918c-1.615 8.166 3.583 16.117 11.616 17.767 8.033 1.638 15.854-3.644 17.471-11.81l19.639-96.606 2.568 35.41a114.558 114.558 0 0 1-3.505 17.941l-18.647 85.891c-.987 3.304 1.44 6.632 4.83 6.632h16.088v107.336c0 9.408 7.495 17.035 16.749 17.035 9.253 0 16.747-7.627 16.747-17.035V268.143h7.728v107.336c0 9.408 7.493 17.035 16.751 17.035 9.247 0 16.747-7.627 16.747-17.035V268.143h16.087c3.388 0 5.825-3.328 4.831-6.632l-18.657-85.891a115.006 115.006 0 0 1-3.499-17.941l2.549-35.525 19.666 96.722c1.614 8.166 9.434 13.447 17.47 11.81 8.028-1.65 13.218-9.602 11.608-17.768"/><path d="m87.62 51.42-.389-13.731-32.548-15.145c-3.644 19.61-8.15 21.5-12.629 23.492-.93.393-1.548 1.008-1.837 1.84-.291.833-.267 1.89.153 2.647.27.564 5.95 11.165 20.873 13.273.175.025 8.638.565 8.638.565L87.62 51.42zM88.176 51.42l.389-13.731 32.541-15.145c3.641 19.61 8.149 21.5 12.624 23.492.93.393 1.548 1.008 1.836 1.84.293.833.269 1.89-.151 2.647-.271.564-5.949 11.165-20.866 13.273-.176.025-8.638.565-8.638.565L88.176 51.42z"/></g></switch></svg>