<svg xmlns="http://www.w3.org/2000/svg" xml:space="preserve" width="159.482" height="183.084" overflow="visible"><switch><g><path fill="#DCF2FF" d="M142.116 95.462s.268-20.377-36.487-22.93L57.251 24.028s-20.227-8.503-28.214-6.976c-7.99 1.526-17.768 3.126-23.208 18.47-5.442 15.345-8.021 44.253 6.951 64.492l10.805 16.583s16.094 54.629 56.009 61.317c39.915 6.688 62.354-4.89 74.935-33.461 0 .001 11.555-28.878-12.413-48.991z"/><path fill="#FFEBE7" d="M123.07 64.867c.781-9.869-8.708-15.098-11.56-16.98-2.852-1.884-1.723-3.063-1.723-3.063l-3.916-8.649c-7.862-11.971-13.826-13.98-24.595-19.205a33.712 33.712 0 0 0-4.118-1.672c-.859-1.302-2.058-2.395-3.482-3.087-2.11-1.027-4.747-1.317-6.213-3.12-1.082-1.331-1.236-3.183-2.247-4.563-2.015-2.755-6.229-2.448-9.622-1.841l-5.832 1.044c-.432.079-.875.158-1.269.349-.708.342-1.187.999-1.628 1.633a98.855 98.855 0 0 0-8.286 14.347c-5.021 3.086-7.894 6.388-7.894 6.388l-10.084 6.23s-8.776 10.619-11.15 18.931c-2.373 8.314-1.229 22.514-.594 27.905.634 5.394 12.917 19.345 12.917 19.345l5.142 3.12 4.315 5.199 8.221 1.747s5.986-5.936 9.15-9.165c3.164-3.233 22.749-8.302 22.749-8.302s17.718-1.413 20.496-1.947c2.779-.537 12.993-.09 12.993-.09l10.941-8.485c.003-.002 6.509-6.202 7.289-16.069z"/><path fill="#FFF" d="M95.027 57.918a9.985 9.985 0 0 0-4.662-2.373c-4.702-1.001-9.929 1.222-12.709 5.406-2.149 3.24-2.622 6.859-1.298 9.928 1.209 2.804 3.748 4.804 6.963 5.489 1.904.405 3.944.335 6.049-.204 3.971-.979 7.113-4.204 8.205-8.419.98-3.782.026-7.456-2.548-9.827z"/><path fill="#FF9FAC" d="M65.759 71.023a2.793 2.793 0 0 0-.543.035 4.583 4.583 0 0 0-.5.095c-2.364.452-4.756 1.289-6.452 3.005-1.71 1.734-2.021 4.336-.146 6.146 1.519 1.465 3.853 1.336 5.72.836 2.354-.627 4.542-1.614 5.879-3.666.878-1.344.913-3.156.014-4.521-.864-1.309-2.428-1.96-3.972-1.93zM108.288 52.85a2.301 2.301 0 0 0-.518.019 4.166 4.166 0 0 0-.809.166c-2.207.522-4.346 1.68-5.255 3.823-.782 1.841-.613 3.965 1.026 5.366 1.435 1.229 3.516 1.45 5.272.905 2.296-.712 4.446-2.167 4.927-4.597.569-2.886-1.634-5.662-4.643-5.682z" opacity=".5"/><path fill="#FF9FAC" d="M106.448 60.651a1.898 1.898 0 0 0-.063-.402 6.448 6.448 0 0 0-.323-.923 14.497 14.497 0 0 0-.179-.409 12.412 12.412 0 0 0-.254-.543 12.978 12.978 0 0 0-.562-.966 4.211 4.211 0 0 0-.528-.654c-.169-.164-.323-.271-.468-.322a.456.456 0 0 0-.267-.021.419.419 0 0 0-.22.138c-.096.111-.17.284-.22.522-.045.204-.021.469.046.765.303 1.285 1.515 3.17 2.275 3.332.354.076.573.013.681-.169.011-.021.033-.032.042-.056a.72.72 0 0 0 .04-.292zM65.777 74.482c-.677-.949-.918-1.203-1.246-.869-.107.112-.225.287-.375.524a1.241 1.241 0 0 0-.154 1.139c.087.257.246.506.466.724s.501.405.83.541c.165.068.341.124.528.163 1.122.239 1.114-.647-.049-2.222zM110.172 58.615c-.022-.42-.168-.936-.434-1.423a3.449 3.449 0 0 0-.305-.472c-.964-1.367-1.562-1.638-1.843-.998a1.644 1.644 0 0 0-.102.331c-.022.106-.017.236.009.383.038.222.125.481.243.752.436.997 1.312 2.169 1.824 2.278a.641.641 0 0 0 .152.013c.333-.02.481-.375.456-.864zM61.341 76.953a4.123 4.123 0 0 0-.364-.812 1.555 1.555 0 0 0-.436-.481.866.866 0 0 0-.243-.114c-.253-.072-.537-.013-.848.183a.431.431 0 0 0-.175.246c-.13.431.122 1.235.504 1.875a4.6 4.6 0 0 0 .149.231c.103.148.211.281.323.393.057.055.112.104.168.146a.887.887 0 0 0 .335.168c.124.025.235.043.331.051.193.014.333-.015.421-.096.092-.08.129-.215.127-.415-.005-.299-.108-.745-.292-1.375z"/><path fill="#3783FF" d="M61.147 16.3c1.497.318 3.701-2.689 5.113-7.192 1.031-3.004 1.102-4.253.589-6.132-.624-2.281-1.94-3.445-3.054-2.798-.301.188-.244.834.091 1.41.79 1.496-.978 8.577-2.827 11.154-1.601 2.313-1.596 3.2.088 3.558zM50.895 14.56c-.052 2.392.79 3.644 2.115 3.231.774-.278.918-.941.821-3.553-.129-5.21-4.544-13.861-6.202-12.19-.328.31-.146 1.295.385 2.167 1.346 2.245 2.935 7.955 2.881 10.345zM75.881 15.958c.584.629 1.616 1.292 2.301 1.438 3.304.703 12.439 5.238 15.869 7.801 4.275 3.185 9.092 9.329 11.877 15.229 2.243 4.775 4.435 7.644 8.126 10.515 5.54 4.275 8.456 13.238 6.442 19.635-.942 3.213-4.433 8.286-6.817 9.99-.603.377-1.115.964-1.167 1.205-.065.302-2.161 1.879-4.681 3.619-3.724 2.493-4.937 2.993-6.497 2.662-3.115-.664-11.468-.607-18.665.137-18.988 1.965-36.146 8.49-42.186 16.055l-2.112 2.584-3.119-.663-3.105-.724 2.377-.443c1.285-.232 3.239-.828 4.378-1.28 1.927-.792 1.952-.913 1.188-2.213-.818-1.375-.878-1.389-2.981-.698-3.152 1.038-5.15.929-7.763-.262-3.101-1.352-5.203-4.645-5.258-8.068-.084-2.355.183-2.996 1.449-4.053.879-.762 2.733-1.506 4.269-1.685 3.623-.493 3.951-.803 2.438-2.261-1.081-1.053-1.753-1.259-3.616-1.086-5.746.673-9.137 3.744-8.862 7.975l.159 2.311-1.992-2.891c-3.203-4.537-6.076-10.645-6.949-14.814-.459-2.119-1.008-4.448-1.176-5.18-.756-3.194-.4-10.07.81-15.754 1.119-5.26 1.726-6.9 4.44-11.38 4.138-6.894 7.706-10.495 15.316-15.323 5.439-3.521 6.243-4.233 5.9-5.381-.38-1.281-.38-1.281-2.369-.504-3.581 1.514-11.669 7.377-14.949 10.851-1.759 1.838-4.619 5.78-6.347 8.699C9.505 47.09 9.3 47.742 7.334 56.677c-1.75 8.224-1.91 9.895-1.397 13.607 1.616 11.404 5.681 20.169 12.765 27.615 3.67 3.882 7.941 7.381 8.083 6.715.063-.301.39.019.709.656 1.182 2.401 4.094 4.033 8.372 4.752l4.091.682 1.513-2.522c7.143-11.815 44.109-20.196 66.003-14.97 2.355.566 4.5.895 4.726.754 1.127-.709.02-2.841-1.899-3.629-1.133-.493-2.053-1.067-2-1.311.111-.229 2.368-1.959 5.103-3.779 2.746-1.881 6.021-4.408 7.202-5.674s2.246-1.986 2.296-1.598c.035.451 1.527 1.084 3.771 1.562 2.431.518 4.461 1.392 5.804 2.435 2.062 1.641 6.23 7.773 7.659 11.174.551 1.381.887 1.643 1.64 1.17 1.277-.801.583-3.666-2.379-9.037-3.357-6.277-8.488-10.023-13.359-9.795l-2.298.08 1.144-2.917c1.403-3.556 1.467-5.06.198-9.816-2.002-7.758-9.535-16.755-13.979-16.688-1.249.05-1.484-.064-.834-.368 1.412-.521-.418-5.397-4.445-11.879-5.169-8.178-11.764-13.626-21.192-17.402-5.468-2.173-7.261-2.618-8.675-2.098-.93.369-.905.563-.075 1.562z"/><path fill="#3783FF" d="M41.557 16.492c-.177 2.365.021 2.976 1.178 3.348 1.209.447 1.385.232 1.9-2.188a8.496 8.496 0 0 0-.432-5.021c-.948-2.286-2.896-3.839-3.181-2.509-.077.363.041 1.336.274 2.082.234.743.346 2.663.261 4.288zM4.465 46.271c2.576-12.41 6.99-19.686 14.497-24.029 5.125-2.955 10.212-3.895 16.424-3.08 4.679.679 5.315.436 4.716-1.65-.341-1.147-.988-1.476-3.995-2.051-1.93-.412-5.214-.604-7.213-.398C1.174 17.635-8.958 58.835 8.959 96.208c3.426 7.175 8.952 15.809 10.262 16.089 1.745.371.813-2.294-2.71-7.783C4.781 85.839.477 65.331 4.465 46.271zM59.774 24.288c-.768.848.336 2.093 4.908 5.72 3.627 2.856 6.518 3.978 5.904 2.267-.21-.55-9.424-8.388-10.048-8.52-.062-.014-.439.221-.764.533zM48.933 26.847c-.577.571 3.47 8.196 5.417 10.379.904.952 1.664 1.366 2.113 1.083.439-.223-.494-2.571-2.371-6.003-2.876-5.163-4.092-6.496-5.159-5.459zM99.217 51.764c-.803-1.434-2.475-1.537-4.307-.283-.914.625-1.745 1.46-1.822 1.824-.09.423-1.149.514-2.584.208-2.309-.491-8.568.453-10.838 1.614-8.564 4.434-9.253 14.716-1.302 20.833 2.734 2.162 9.28 3.555 12.53 2.666 5.464-1.493 9.363-5.719 10.068-10.877.511-3.937-.508-6.808-3.568-10.178l-1.961-2.123 2.119-1.382c1.655-1.04 2.023-1.53 1.665-2.302zM89.094 75.145c-9.439 2.416-15.707-5.806-10.526-13.615 3.642-5.482 11.304-6.886 15.724-2.849 5.175 4.766 2.094 14.665-5.198 16.464z"/><path fill="#3783FF" d="M88.607 59.368c-.852.324-.617.753.972 2.166 2.248 1.996 2.32 2.263.801 3.583-1.604 1.429-3.46.337-3.01-1.778.463-2.177-.898-3.731-2.578-2.887-3.432 1.735-.934 7.449 3.617 8.416 2.806.597 6.149-1.03 6.601-3.145.358-1.694.04-2.331-1.896-4.576-1.623-1.861-2.895-2.321-4.507-1.779zM62.197 68.348c.876 1.072 4.209 1.338 5.874.555.816-.458.879-.76.201-1.854-.967-1.596-1.465-1.701-4.388-1.123-2.452.491-2.816.98-1.687 2.422zM156.401 112.848c-1.93-4.708-6.951-12.349-10.092-15.355-2.705-2.597-2.719-2.537-4.193-2.03-.927.373-.965.554-.133 1.235 2.568 2.316 6.419 7.498 8.318 11.125 6.168 12.057 6.371 25.499.548 40.312-7.153 18.009-29.084 31.04-51.527 30.562-5.969-.13-23.86-3.937-28.679-6.102-16.108-7.281-28.146-18.688-36.797-35.004-2.89-5.418-8.991-19.924-10.163-24.219-.867-2.965-2.085-3.667-2.848-1.617-.47 1.29 4.821 15.627 9.193 25.09 3.229 6.879 9.894 17.208 14.071 21.763 6.847 7.334 15.025 13.308 24.197 17.662 5.976 2.853 25.425 6.989 31.721 6.811 20.077-.657 36.284-8.84 48.466-24.451 5.302-6.834 7.934-12.47 9.784-21.175 2.036-9.872 1.576-16.29-1.866-24.607z"/><path fill="#3783FF" d="M134.34 108.723c-.214-1.437-4.295-2.176-9.014-1.729-11.906 1.136-37.835 10.912-49.732 18.746-3.712 2.434-4.164 3.035-3.539 4.686.345.83 1.133.494 4.08-1.41 14.027-9.275 47.481-20.426 55.898-18.634 1.807.384 2.586-.21 2.307-1.659zM125.785 139.138c-.439.539-1.261 1.944-1.753 3.039-1.482 3.288-10.51 15.396-13.247 17.849-2.484 2.188-3.183 3.939-1.9 4.653 1.804 1.016 11.121-9.707 16.713-19.136 1.956-3.376 2.146-3.967 1.646-5.592-.54-1.756-.603-1.77-1.459-.813z"/></g></switch></svg>