<svg xmlns="http://www.w3.org/2000/svg" xml:space="preserve" width="196.151" height="197.561" overflow="visible"><switch><g><path d="M153.917 0H42.234C18.911 0 0 18.911 0 42.231v113.092c0 23.326 18.911 42.237 42.234 42.237h111.683c23.326 0 42.234-18.911 42.234-42.237V42.231C196.151 18.911 177.243 0 153.917 0zm-11.973 141.258h-29.572s-6.768-6.771-14.037-32.833c0 0-5.511 10.526-.249 39.349H67.761S35.429 105.671 44.2 51.786h29.323s-6.768 25.562 4.26 57.141c0 0-1.251-22.304 13.535-48.12h24.312s-4.512 24.059 5.012 48.12c0 0-1.754-14.036 11.529-39.349h29.572c0-.001-24.058 34.086-19.799 71.68z"/></g></switch></svg>