<svg xmlns="http://www.w3.org/2000/svg" xml:space="preserve" width="181.422" height="393.326" overflow="visible"><switch><g><path d="M87.646 73.484c19.022 0 34.438-15.623 34.438-36.741C122.083 15.621 106.668 0 87.646 0h-.513C68.108 0 52.684 15.621 52.684 36.743c0 21.119 15.424 36.741 34.449 36.741h.513zM181.128 212.917l-19.002-93.331-1.901-9.609c-3.003-15.163-15.924-26.073-36.506-26.073H57.721c-18.471 0-33.501 10.907-36.507 26.073l-1.903 9.609L.294 212.917c-1.614 8.167 3.583 16.118 11.618 17.768 8.031 1.638 15.854-3.643 17.469-11.81l21.686-99.289V270.71l.098-31.146V375.97c0 9.409 7.497 17.034 16.746 17.034 9.252 0 16.749-7.625 16.749-17.034V239.565l12.267.029V376.29c0 9.41 7.491 17.035 16.752 17.035 9.247 0 16.749-7.625 16.749-17.035V239.884l-.066 18.188V119.587l21.693 99.289c1.611 8.167 9.435 13.447 17.468 11.81 8.031-1.65 13.22-9.602 11.605-17.769"/></g></switch></svg>