<svg xmlns="http://www.w3.org/2000/svg" xml:space="preserve" width="275.131" height="149.471" overflow="visible"><switch><g><path d="M244.524 37.253c0-12.983-7.209-24.313-17.832-30.203l-3.51-1.69c-.285-.121-6.723-2.402-13.125-2.43-6.504-.035-12.684 1.979-13.094 2.233l-3.525 1.633c-10.73 5.728-18.104 16.966-18.305 29.91-.002.185-.002.363-.002.547 0 0 16.729-2.241 23.369-15.137.003 0 11.765 14.559 46.024 15.137z"/><circle cx="178.385" cy="10.409" r="10.409"/><circle cx="241.606" cy="10.409" r="10.409"/><path d="M171.313 53.405a4.7 4.7 0 0 1 3.574-4.555v6.34c0 .945.051 1.879.125 2.809a4.71 4.71 0 0 1-3.699-4.594zm52.063-47.893c-.289-.121-6.787-2.427-13.244-2.453-6.563-.035-12.799 2-13.211 2.254l-3.563 1.645c-10.979 5.863-18.473 17.438-18.473 30.734v7.707c-3.93.555-6.965 3.926-6.965 8.008 0 4.277 3.338 7.781 7.543 8.066 2.967 16.211 16.645 28.543 34.184 28.543 17.475 0 31.715-12.332 34.682-28.543 4.209-.285 7.545-3.789 7.545-8.066 0-4.082-3.037-7.453-6.967-8.008v-7.707c0-13.098-7.271-24.527-17.99-30.469m13.311 21.553a31.429 31.429 0 0 1 1.293 8.914v17.5h.002c0 18.449-15.998 31.603-31.906 31.531-15.711-.07-31.338-13.082-31.338-31.531v-17.5c0-3.137.467-6.164 1.324-9.021l1.143-3.19c4.777-11.285 14.097-19.223 29.128-19.223 15.032 0 24.469 7.984 29.219 19.324m5.693 32.419c.072-.93.121-1.862.121-2.809v-6.34c2.049.508 3.576 2.348 3.576 4.555a4.71 4.71 0 0 1-3.697 4.594z"/><path d="M201.591 46.089a2.895 2.895 0 0 1-5.79 0 2.9 2.9 0 0 1 2.896-2.895 2.898 2.898 0 0 1 2.894 2.895zm22.849 0a2.898 2.898 0 0 1-5.791 0c0-1.594 1.297-2.895 2.896-2.895s2.895 1.301 2.895 2.895zm1.694 16.109a1.694 1.694 0 0 0-2.393 0c-7.414 7.41-19.477 7.41-26.893 0a1.694 1.694 0 1 0-2.422 2.37l.029.029c4.365 4.366 10.102 6.547 15.838 6.547s11.471-2.181 15.838-6.547c1.034-.903.003-2.399.003-2.399zm5.816 18.255c.252 1.129.398 2.289.398 3.479 0 10.438-10.139 18.896-22.646 18.896s-22.646-8.461-22.646-18.896c0-1.438.211-2.84.577-4.188C153.104 87.604 143 115.629 143 149h132.131c.001-32.493-11.874-59.868-43.181-68.547zM102.357 32.33c0-19.983-16.203-28.59-36.189-28.59-19.984 0-36.188 8.605-36.188 28.59h40.686l3.689-7.961 6.369 7.906 21.633.055z"/><path d="M101.727 45.869v-7.707c0-13.098-7.271-24.526-17.99-30.469l-3.543-1.711c-.287-.12-6.785-2.425-13.242-2.453-6.562-.035-12.799 2-13.211 2.254l-3.56 1.646C39.2 13.291 31.707 24.866 31.707 38.162v7.707c-3.93.555-6.965 3.926-6.965 8.008 0 4.277 3.338 7.781 7.541 8.066 2.969 16.211 16.646 28.543 34.186 28.543 17.47 0 31.714-12.332 34.679-28.543 4.207-.285 7.543-3.789 7.543-8.066 0-4.082-3.035-7.453-6.964-8.008zm-73.596 8.008c0-2.207 1.527-4.047 3.576-4.555v6.34c0 .945.051 1.879.125 2.81-2.113-.466-3.701-2.345-3.701-4.595zm70.207 1.785c0 18.449-15.996 31.603-31.904 31.531-15.711-.07-31.338-13.082-31.338-31.531v-17.5c0-3.137.467-6.164 1.324-9.02l1.143-3.191C42.34 14.666 51.658 6.729 66.691 6.729S91.16 14.712 95.91 26.053l1.133 3.194a31.325 31.325 0 0 1 1.295 8.914v17.501zm3.266 2.81a35.35 35.35 0 0 0 .123-2.81v-6.34c2.049.508 3.578 2.348 3.578 4.555a4.713 4.713 0 0 1-3.701 4.595z"/><path d="M58.408 46.562a2.896 2.896 0 0 1-5.79 0 2.9 2.9 0 0 1 2.895-2.896 2.9 2.9 0 0 1 2.895 2.896zM81.262 46.562a2.897 2.897 0 0 1-5.791 0 2.9 2.9 0 0 1 2.896-2.896 2.9 2.9 0 0 1 2.895 2.896zM83.002 62.67a1.698 1.698 0 0 0-2.395 0c-7.414 7.41-19.476 7.41-26.89 0a1.695 1.695 0 0 0-2.395 2.399c4.367 4.367 10.102 6.547 15.84 6.547 5.733 0 11.469-2.18 15.838-6.547 1.031-.903.002-2.399.002-2.399zM88.949 80.923c.254 1.13.402 2.289.402 3.48 0 10.438-10.14 18.898-22.648 18.898-12.506 0-22.646-8.462-22.646-18.898 0-1.438.211-2.84.578-4.188C10.107 88.076 0 116.1 0 149.471h132.133c0-32.492-11.875-59.867-43.184-68.548z"/></g></switch></svg>