<?xml version="1.0" encoding="utf-8"?>
<!-- Generator: Adobe Illustrator 23.0.1, SVG Export Plug-In . SVG Version: 6.00 Build 0)  -->
<svg version="1.1" xmlns="http://www.w3.org/2000/svg" xmlns:xlink="http://www.w3.org/1999/xlink" width="316.7px" height="316.7px" viewBox="0 0 316.7 316.7">
<circle cx="158.3" cy="158.3" r="158.3"/>
<g>
	<circle fill="#212121" cx="96.8" cy="146.6" r="23.5"/>
	<circle fill="#212121" cx="219.9" cy="146.6" r="23.5"/>
	<path fill="#212121" d="M199.3,234.6c-2.3,0-4.7-0.7-6.8-2.2c-8.6-6.1-21.1-9.6-34.3-9.6c-13.1,0-25.5,3.4-34.1,9.4
		c-5.3,3.7-12.6,2.4-16.3-2.9c-3.7-5.3-2.4-12.6,2.9-16.3c12.6-8.8,29.5-13.7,47.5-13.7c18.2,0,35.2,4.9,47.8,13.9
		c5.3,3.7,6.5,11.1,2.8,16.4C206.6,232.9,202.9,234.6,199.3,234.6z"/>
	<path fill="#212121" d="M70.4,111.4c-4.3,0-8.4-2.4-10.5-6.5c-2.9-5.8-0.5-12.8,5.2-15.7l35.2-17.6c5.8-2.9,12.8-0.5,15.7,5.2
		c2.9,5.8,0.5,12.8-5.2,15.7l-35.2,17.6C73.9,111,72.1,111.4,70.4,111.4z"/>
	<path fill="#212121" d="M246.3,111.4c-1.8,0-3.6-0.4-5.2-1.2l-35.2-17.6c-5.8-2.9-8.1-9.9-5.2-15.7c2.9-5.8,9.9-8.1,15.7-5.2
		l35.2,17.6c5.8,2.9,8.1,9.9,5.2,15.7C254.8,109.1,250.6,111.4,246.3,111.4z"/>
</g>
</svg>
