<svg xmlns="http://www.w3.org/2000/svg" xml:space="preserve" width="271.665" height="198.309" overflow="visible"><switch><g><path d="M229.273 0H42.392C18.985 0 0 18.982 0 42.391v113.52c0 23.417 18.985 42.398 42.392 42.398h186.882c23.418 0 42.392-18.981 42.392-42.398V42.391C271.665 18.982 252.691 0 229.273 0zm-62.641 105.843.017.202-50.227 29.613.006-.274a8.498 8.498 0 0 1-3.036.566 8.541 8.541 0 0 1-8.539-8.54V71.024a8.541 8.541 0 0 1 8.539-8.54c1.814 0 3.493.57 4.876 1.537l47.165 27.639.011.128a8.525 8.525 0 0 1 1.188 14.055z"/></g></switch></svg>