<?xml version="1.0" encoding="utf-8"?>
<!-- Generator: Adobe Illustrator 23.0.1, SVG Export Plug-In . SVG Version: 6.00 Build 0)  -->
<svg version="1.1" xmlns="http://www.w3.org/2000/svg" xmlns:xlink="http://www.w3.org/1999/xlink" width="316.7px" height="316.7px" viewBox="0 0 316.7 316.7">
<circle cx="158.3" cy="158.3" r="158.3"/>
<g>
	<circle fill="#212121" cx="96.8" cy="146.6" r="23.5"/>
	<circle fill="#212121" cx="219.9" cy="146.6" r="23.5"/>
	<path fill="#212121" d="M158.5,234.6c-18.2,0-35.2-4.9-47.8-13.9c-5.3-3.7-6.5-11.1-2.8-16.4c3.7-5.3,11.1-6.5,16.4-2.8
		c8.6,6.1,21.1,9.6,34.3,9.6c13.1,0,25.5-3.4,34.1-9.4c5.3-3.7,12.6-2.4,16.3,2.9c3.7,5.3,2.4,12.6-2.9,16.3
		C193.4,229.7,176.5,234.6,158.5,234.6z"/>
</g>
</svg>
