<svg xmlns="http://www.w3.org/2000/svg" xml:space="preserve" width="275.13" height="147.293" overflow="visible"><switch><g><path d="M66.297 54.961c-3.443 0-6.232 3.129-6.232 6.98 0 3.855 2.789 6.984 6.232 6.984 3.445 0 6.231-3.129 6.231-6.984 0-3.851-2.786-6.98-6.231-6.98zm0 11.172c-2.064 0-3.738-1.879-3.738-4.191s1.674-4.191 3.738-4.191c2.065 0 3.742 1.879 3.742 4.191s-1.677 4.191-3.742 4.191zM97.104 24.18l3.217 21.828 1.779-9.336C102.101 16.973 86.041 1 66.225 1 46.412 1 30.352 16.973 30.352 36.672l1.307 9.219.041.258c1.639-5.984 3.176-23.418 3.176-23.418"/><path d="M101.728 43.695v-7.707c0-13.102-7.271-24.531-17.99-30.473l-3.543-1.711c-.287-.117-6.785-2.422-13.242-2.453-6.563-.031-12.799 2-13.211 2.258L50.18 5.254C39.2 11.117 31.707 22.692 31.707 35.988v7.707c-3.932.551-6.967 3.926-6.967 8.004 0 4.277 3.338 7.781 7.543 8.066C35.25 75.98 48.928 88.313 66.469 88.313c17.471 0 31.713-12.332 34.678-28.546 4.209-.285 7.545-3.789 7.545-8.066-.002-4.08-3.037-7.455-6.964-8.006zm-73.597 8.004c0-2.203 1.527-4.043 3.576-4.555v6.344c0 .941.049 1.879.123 2.805a4.708 4.708 0 0 1-3.699-4.594zm38.303 33.317c-15.713-.07-31.34-13.082-31.34-31.527v-17.5c0-3.137.469-6.164 1.326-9.023l1.143-3.191C42.34 12.488 51.658 4.551 66.69 4.551c15.033 0 24.468 7.988 29.218 19.328l1.135 3.195a31.393 31.393 0 0 1 1.293 8.914v17.5h.002c0 18.446-15.998 31.598-31.904 31.528zm35.17-28.723c.074-.926.123-1.863.123-2.805v-6.344c2.049.512 3.576 2.352 3.576 4.555a4.707 4.707 0 0 1-3.699 4.594z"/><path d="M58.408 44.387a2.899 2.899 0 0 1-2.895 2.895 2.899 2.899 0 0 1-2.895-2.895 2.896 2.896 0 0 1 5.79 0zm22.852 0a2.9 2.9 0 0 1-2.896 2.895 2.9 2.9 0 0 1-2.896-2.895 2.896 2.896 0 0 1 5.792 0zm7.689 34.363c.252 1.125.399 2.289.399 3.48 0 10.434-10.139 18.895-22.646 18.895-12.506 0-22.646-8.461-22.646-18.895 0-1.441.209-2.84.576-4.191C10.107 85.898 0 113.926 0 147.293h132.131c0-32.488-11.875-59.863-43.182-68.543zM209.749 54.961c-3.443 0-6.232 3.129-6.232 6.98 0 3.854 2.789 6.983 6.232 6.983 3.444 0 6.231-3.129 6.231-6.983 0-3.851-2.787-6.98-6.231-6.98zm0 11.172c-2.064 0-3.738-1.879-3.738-4.191s1.674-4.19 3.738-4.19c2.065 0 3.742 1.879 3.742 4.19 0 2.312-1.677 4.191-3.742 4.191zm-39.996-49.039c-.603.035-1.199.07-1.787.184-4.332.875-7.18 4.832-6.744 9.164.02.09.02.09.035.172 1.395 6.918-1.855 11.047-3.922 12.848-.37.323-.535.821-.433 1.302.101.495.435.862.899 1.026 2.603.862 5.339 1.095 8.005.563 6.506-1.313 11.006-6.113 12.147-12.075 2.609-11.524-8.2-13.184-8.2-13.184zm71.476 9.699c.146 6.063 3.869 11.578 10.065 13.938 2.545.974 5.361 1.228 8.07.806.49-.091.881-.397 1.063-.88.262-.44.172-.926-.136-1.319-1.742-2.116-4.346-6.75-1.801-13.426l.061-.16c1.179-4.285-1.086-8.609-5.219-10.184-.557-.211-1.623-.523-1.623-.523s-12.846-2.248-10.48 11.748zm-41.42-4.301c0 3.512-4.375 6.363-9.771 6.363-5.392 0-9.767-2.852-9.767-6.363 0-3.516 4.375-6.371 9.767-6.371 5.396 0 9.771 2.856 9.771 6.371z"/><ellipse cx="209.581" cy="22.492" rx="9.77" ry="6.363"/><ellipse cx="228.837" cy="22.492" rx="9.771" ry="6.363"/><path d="m240.585 23.18 3.218 21.828 1.778-9.336C245.583 15.973 229.523 0 209.708 0c-19.813 0-35.873 15.973-35.873 35.672l1.307 9.219.041.258c1.639-5.983 5.32-23.276 5.32-23.276"/><path d="M171.313 50.699c0-2.203 1.527-4.043 3.576-4.555v6.344c0 .941.049 1.879.123 2.805a4.708 4.708 0 0 1-3.699-4.594zm52.063-47.894c-.287-.117-6.785-2.422-13.242-2.453-6.563-.031-12.799 2-13.211 2.258l-3.562 1.645c-10.979 5.863-18.472 17.438-18.472 30.733v7.707c-3.93.552-6.967 3.927-6.967 8.005 0 4.276 3.34 7.78 7.543 8.065 2.967 16.215 16.646 28.547 34.185 28.547 17.472 0 31.713-12.332 34.681-28.547 4.207-.285 7.543-3.789 7.543-8.065 0-4.078-3.035-7.453-6.965-8.005v-7.707c0-13.101-7.271-24.53-17.99-30.472m13.306 21.558a31.324 31.324 0 0 1 1.293 8.915v17.5h.002c0 18.445-15.998 31.598-31.903 31.527-15.714-.07-31.34-13.082-31.34-31.527v-17.5c0-3.137.469-6.165 1.326-9.023l1.143-3.191c4.776-11.286 14.094-19.223 29.129-19.223 15.033 0 24.469 7.988 29.219 19.328m5.692 32.413c.073-.926.123-1.863.123-2.805v-6.344c2.049.512 3.577 2.352 3.577 4.555a4.71 4.71 0 0 1-3.7 4.594z"/><path d="M201.589 43.387c0 1.594-1.297 2.895-2.895 2.895s-2.895-1.301-2.895-2.895a2.896 2.896 0 0 1 5.79 0zm22.852 0a2.9 2.9 0 0 1-2.896 2.895 2.9 2.9 0 0 1-2.896-2.895 2.898 2.898 0 0 1 2.896-2.895 2.898 2.898 0 0 1 2.896 2.895zm7.509 34.363c.252 1.125.399 2.289.399 3.48 0 10.434-10.138 18.895-22.646 18.895-12.507 0-22.646-8.461-22.646-18.895 0-1.441.209-2.84.576-4.191C153.107 84.898 143 112.926 143 146.293h132.13c0-32.488-11.875-59.863-43.18-68.543z"/></g></switch></svg>