<svg xmlns="http://www.w3.org/2000/svg" xml:space="preserve" width="193.944" height="195.784" overflow="visible"><switch><g><path d="M5.612 195.784A5.628 5.628 0 0 1 0 190.185V94.561a5.627 5.627 0 0 1 5.604-5.66h21.41c3.111-.018 5.651 2.487 5.669 5.59v95.695a5.633 5.633 0 0 1-5.66 5.599H5.612zm187.99-14.985c0 8.815-8.174 14.985-16.937 14.985H45.062a5.621 5.621 0 0 1-5.611-5.599V94.561a5.634 5.634 0 0 1 5.031-5.616c16.625-1.754 26.798-12.687 35.311-25.62C88.766 49.697 90.4 32.369 90.4 13.172c0-6.047 3.542-10.503 9.105-12.252 2.417-.756 4.952-1.033 7.515-.879 2.562.158 5.159.738 7.747 1.705 10.345 3.867 20.47 14.115 20.47 30.939v39.362h41.695c8.759 0 16.88 6.17 16.88 14.985v9.392c0 5.959-3.63 9.387-3.63 9.387s3.63 3.384 3.63 9.378v9.343c0 5.95-3.709 9.392-3.709 9.392s3.709 3.37 3.709 9.382v4.882s1.041 12.063-2.813 14.551c0 0 2.944 2.461 2.944 7.668.001 5.206-.341 10.392-.341 10.392z"/></g></switch></svg>