<svg xmlns="http://www.w3.org/2000/svg" xml:space="preserve" width="274.131" height="148.883" overflow="visible"><switch><g><path d="M69.065 22.926s21.078 16.031 30.216 10.082l1.209 11.996 1.778-9.336C102.271 15.969 86.213 0 66.396 0 46.584 0 30.521 15.969 30.521 35.668l1.307 9.223.041.254c1.639-5.98 6.977-12.016 6.977-12.016s17.994 2.418 30.219-10.203z"/><path d="M101.728 45.281v-7.707c0-13.098-7.271-24.527-17.992-30.469l-3.541-1.711c-.287-.121-6.785-2.426-13.242-2.453-6.563-.035-12.799 2-13.211 2.254L50.18 6.84C39.2 12.703 31.705 24.278 31.705 37.574v7.707c-3.93.555-6.965 3.926-6.965 8.008 0 4.277 3.338 7.781 7.543 8.066 2.967 16.211 16.645 28.543 34.186 28.543 17.471 0 31.713-12.332 34.678-28.543 4.209-.285 7.545-3.789 7.545-8.066-.002-4.082-3.037-7.453-6.964-8.008zm-73.597 8.008c0-2.207 1.527-4.047 3.574-4.555v6.34c0 .945.051 1.879.125 2.809a4.712 4.712 0 0 1-3.699-4.594zm38.303 33.316c-15.713-.07-31.34-13.083-31.34-31.533v-17.5c0-3.137.469-6.164 1.324-9.02l1.145-3.191C42.34 14.078 51.658 6.141 66.69 6.141c15.033 0 24.468 7.984 29.218 19.324l1.135 3.195a31.393 31.393 0 0 1 1.293 8.914v17.5h.002c0 18.449-15.998 31.602-31.904 31.531zm35.17-28.722c.074-.93.123-1.863.123-2.809v-6.34c2.047.508 3.576 2.348 3.576 4.555a4.713 4.713 0 0 1-3.699 4.594z"/><path d="M58.408 45.973a2.896 2.896 0 0 1-5.79 0 2.899 2.899 0 0 1 2.895-2.895 2.899 2.899 0 0 1 2.895 2.895zm22.852 0a2.896 2.896 0 0 1-5.79 0 2.9 2.9 0 0 1 2.896-2.895 2.898 2.898 0 0 1 2.894 2.895zM83 62.082a1.695 1.695 0 0 0-2.394 0c-7.414 7.41-19.475 7.41-26.891 0a1.696 1.696 0 1 0-2.422 2.369l.029.029c4.365 4.367 10.102 6.547 15.838 6.547 5.734 0 11.471-2.18 15.838-6.547 1.03-.902.002-2.398.002-2.398zm5.949 18.254c.252 1.129.399 2.289.399 3.48 0 10.438-10.139 18.896-22.647 18.896-12.506 0-22.645-8.461-22.645-18.896 0-1.438.209-2.84.576-4.188C10.107 87.488 0 115.512 0 148.883h132.131c0-32.492-11.875-59.867-43.182-68.547z"/><path d="m175.899 35.229-.438 10.648s-5.979 1.457-6.563 5.543 1.021 5.988 6.854 8.465l5.69 14.867h-7.51c-10.873 0-9.687-13.188-9.687-13.188V48.331c0-7.285 4.338-13.188 9.687-13.188h1.965m64.504.086.449 10.648s6.123 1.457 6.721 5.543c.599 4.086-1.043 5.988-7.021 8.465l-5.827 14.867h7.688c11.133 0 9.918-13.188 9.918-13.188V48.331c0-7.285-4.44-13.188-9.918-13.188h-2.013m4.354-.07c0-19.984-16.203-32.391-36.188-32.391-19.983 0-36.188 12.406-36.188 32.391h40.688l3.688-7.961 6.369 7.902 21.631.059z"/><path d="M200.401 3.37s-35.944 7.41-35.944 43.602m57.008-42.263s31.265 9.621 30.923 44.621"/><path d="M170.313 52.819c0-2.207 1.525-4.047 3.576-4.555v6.34c0 .945.049 1.879.123 2.809a4.709 4.709 0 0 1-3.699-4.594zm52.062-47.894c-.287-.121-6.785-2.426-13.242-2.454-6.563-.035-12.799 2-13.211 2.254L192.36 6.37c-10.979 5.863-18.473 17.438-18.473 30.734v7.707c-3.931.555-6.968 3.926-6.968 8.008 0 4.277 3.338 7.781 7.543 8.066 2.968 16.21 16.646 28.542 34.187 28.542 17.472 0 31.713-12.332 34.679-28.542 4.209-.285 7.545-3.789 7.545-8.066 0-4.082-3.035-7.453-6.965-8.008v-7.707c0-13.098-7.271-24.527-17.99-30.469m13.308 21.555a31.393 31.393 0 0 1 1.293 8.914v17.5h.002c0 18.449-15.998 31.602-31.903 31.531-15.714-.07-31.341-13.082-31.341-31.531v-17.5c0-3.137.47-6.164 1.326-9.02l1.144-3.191c4.774-11.285 14.095-19.222 29.128-19.222s24.469 7.984 29.219 19.324m5.691 32.418c.073-.93.123-1.863.123-2.809v-6.34c2.049.508 3.575 2.348 3.575 4.555a4.712 4.712 0 0 1-3.698 4.594z"/><path d="M200.59 45.502a2.896 2.896 0 0 1-5.79 0 2.899 2.899 0 0 1 2.895-2.895 2.9 2.9 0 0 1 2.895 2.895zm22.85 0a2.898 2.898 0 0 1-5.791 0c0-1.594 1.297-2.895 2.896-2.895s2.895 1.302 2.895 2.895zm1.695 16.11a1.696 1.696 0 0 0-2.395 0c-7.414 7.41-19.476 7.41-26.89 0a1.695 1.695 0 0 0-2.394 2.399c4.367 4.367 10.102 6.547 15.84 6.547 5.734 0 11.469-2.18 15.838-6.547 1.03-.903.001-2.399.001-2.399zm5.814 18.253c.252 1.129.399 2.289.399 3.48 0 10.438-10.14 18.897-22.646 18.897-12.508 0-22.646-8.462-22.646-18.897 0-1.439.209-2.841.575-4.189C152.106 87.018 142 115.041 142 148.412h132.131c0-32.491-11.875-59.866-43.182-68.547z"/></g></switch></svg>