<?xml version="1.0" encoding="utf-8"?>
<!-- Generator: Adobe Illustrator 21.1.0, SVG Export Plug-In . SVG Version: 6.00 Build 0)  -->
<svg version="1.1" xmlns="http://www.w3.org/2000/svg" xmlns:xlink="http://www.w3.org/1999/xlink" width="564.1" height="262.8" viewBox="0 0 564.1 262.8">
	<path d="M562.9,86.9l-14.7-18.4c-1.8-2.2-4.9-2.7-7.3-1.2c-5,3.2-10.2,6.2-15.5,9c-6.4,3.5-12.9,6.7-19.6,9.8 c-61.9,28.2-135.8,39-201.6,41c-2.8,0.1-5.5,0.2-8.3,0.2c-65.3,1.3-121.8-5.9-149-12.7C91.3,100.5,47.9,4.3,47.5,3.3 c-0.7-1.5-2-2.6-3.6-3.1C42.3-0.2,40.6,0,39.2,1L2.4,26.8c-1.3,0.9-2.1,2.3-2.3,3.9c-0.2,1.6,0.3,3.2,1.4,4.3l33.2,36.9c0,0,0,0,0,0 c0.3,0.6,0.7,1.6,1,2.3c0.7,1.8,1.3,3.1,2,4.2c7.4,16.8,14,33.4,14,52.4c0,38.3,50,102.8,143.8,124.6c1.9,0.4,3.7,0.9,6,1.3l0.8,0.2 	c18.7,3.9,38.8,5.8,60.1,5.8c9,0,18.2-0.3,27.5-1c2.1-0.2,4.1-0.3,6.1-0.5c2.8-0.2,5.5-0.5,8.3-0.8c95.5-10.5,160.6-52.8,201.6-92.4 c7.3-7,13.8-13.9,19.6-20.5c26.3-30,37.9-54.3,38.2-54.9C564.5,90.8,564.2,88.5,562.9,86.9z"/>
</svg>
